<svg id="visual" viewBox="0 0 900 600" width="900" height="600" xmlns="http://www.w3.org/2000/svg" xmlns:xlink="http://www.w3.org/1999/xlink" version="1.1"><rect x="0" y="0" width="900" height="600" fill="#001220"></rect><path d="M0 426L21.5 427.7C43 429.3 86 432.7 128.8 427.7C171.7 422.7 214.3 409.3 257.2 399.3C300 389.3 343 382.7 385.8 384.5C428.7 386.3 471.3 396.7 514.2 403.2C557 409.7 600 412.3 642.8 417.5C685.7 422.7 728.3 430.3 771.2 426.7C814 423 857 408 878.5 400.5L900 393L900 601L878.5 601C857 601 814 601 771.2 601C728.3 601 685.7 601 642.8 601C600 601 557 601 514.2 601C471.3 601 428.7 601 385.8 601C343 601 300 601 257.2 601C214.3 601 171.7 601 128.8 601C86 601 43 601 21.5 601L0 601Z" fill="#029987"></path><path d="M0 422L21.5 417.5C43 413 86 404 128.8 408.8C171.7 413.7 214.3 432.3 257.2 440.7C300 449 343 447 385.8 447.3C428.7 447.7 471.3 450.3 514.2 444.2C557 438 600 423 642.8 424.2C685.7 425.3 728.3 442.7 771.2 447.5C814 452.3 857 444.7 878.5 440.8L900 437L900 601L878.5 601C857 601 814 601 771.2 601C728.3 601 685.7 601 642.8 601C600 601 557 601 514.2 601C471.3 601 428.7 601 385.8 601C343 601 300 601 257.2 601C214.3 601 171.7 601 128.8 601C86 601 43 601 21.5 601L0 601Z" fill="#008482"></path><path d="M0 482L21.5 477.8C43 473.7 86 465.3 128.8 468.5C171.7 471.7 214.3 486.3 257.2 492.2C300 498 343 495 385.8 484.7C428.7 474.3 471.3 456.7 514.2 452.5C557 448.3 600 457.7 642.8 465.8C685.7 474 728.3 481 771.2 477.5C814 474 857 460 878.5 453L900 446L900 601L878.5 601C857 601 814 601 771.2 601C728.3 601 685.7 601 642.8 601C600 601 557 601 514.2 601C471.3 601 428.7 601 385.8 601C343 601 300 601 257.2 601C214.3 601 171.7 601 128.8 601C86 601 43 601 21.5 601L0 601Z" fill="#036f77"></path><path d="M0 527L21.5 519.5C43 512 86 497 128.8 497.3C171.7 497.7 214.3 513.3 257.2 519C300 524.7 343 520.3 385.8 513.5C428.7 506.7 471.3 497.3 514.2 497.2C557 497 600 506 642.8 514.8C685.7 523.7 728.3 532.3 771.2 532.3C814 532.3 857 523.7 878.5 519.3L900 515L900 601L878.5 601C857 601 814 601 771.2 601C728.3 601 685.7 601 642.8 601C600 601 557 601 514.2 601C471.3 601 428.7 601 385.8 601C343 601 300 601 257.2 601C214.3 601 171.7 601 128.8 601C86 601 43 601 21.5 601L0 601Z" fill="#1c5a67"></path><path d="M0 551L21.5 547.2C43 543.3 86 535.7 128.8 537.3C171.7 539 214.3 550 257.2 549.5C300 549 343 537 385.8 537C428.7 537 471.3 549 514.2 555.2C557 561.3 600 561.7 642.8 560.5C685.7 559.3 728.3 556.7 771.2 558.5C814 560.3 857 566.7 878.5 569.8L900 573L900 601L878.5 601C857 601 814 601 771.2 601C728.3 601 685.7 601 642.8 601C600 601 557 601 514.2 601C471.3 601 428.7 601 385.8 601C343 601 300 601 257.2 601C214.3 601 171.7 601 128.8 601C86 601 43 601 21.5 601L0 601Z" fill="#264653"></path></svg>