<svg
  width="159"
  height="180"
  viewBox="0 0 159 180"
  fill="none"
  xmlns="http://www.w3.org/2000/svg"
>
  <path
    d="M17.9375 89.625H0V0H62.75V17.9375H17.9375V35.875H44.8125V53.8125H17.9375V89.625Z"
    fill="#E9C46A"  
    />
  <path
    d="M140.812 90H158.75V179.625H96V161.688H140.812V143.75H113.938V125.812H140.812V90Z"
    fill="#E9C46A"  
    />
  <path
    d="M68.7969 115.188H56V64.9844H59.0938L63.3125 69.8594C65.375 67.9844 67.7031 66.5469 70.2969 65.5469C72.9219 64.5156 75.6562 64 78.5 64C81.5625 64 84.4531 64.5938 87.1719 65.7812C89.8906 66.9375 92.2656 68.5469 94.2969 70.6094C96.3281 72.6406 97.9219 75.0312 99.0781 77.7812C100.266 80.5 100.859 83.4062 100.859 86.5V115.188H88.0625V86.5C88.0625 85.1875 87.8125 83.9531 87.3125 82.7969C86.8125 81.6094 86.125 80.5781 85.25 79.7031C84.375 78.8281 83.3594 78.1406 82.2031 77.6406C81.0469 77.1406 79.8125 76.8906 78.5 76.8906C77.1562 76.8906 75.8906 77.1406 74.7031 77.6406C73.5156 78.1406 72.4844 78.8281 71.6094 79.7031C70.7344 80.5781 70.0469 81.6094 69.5469 82.7969C69.0469 83.9531 68.7969 85.1875 68.7969 86.5V115.188Z"
    fill="#E76F51"
  />
</svg>